<svg width="16" height="16" viewBox="0 0 16 16" fill="none" xmlns="http://www.w3.org/2000/svg">
<path d="M5.13867 13.8752C5.13867 15.2397 6.41367 15.1817 7.98667 15.1817C9.56092 15.1817 10.8352 15.2392 10.8352 13.8752C10.8352 12.513 9.56092 9.15149 7.98667 9.15149C6.41342 9.15149 5.13867 12.513 5.13867 13.8752Z" fill="#ECE6D6"/>
<path d="M0 8.011C0 10.3235 3.57425 12.1972 7.987 12.1972C12.401 12.1972 15.975 10.3235 15.975 8.011C15.9753 5.7015 12.401 0 7.987 0C3.5745 0 0 5.7015 0 8.011Z" fill="#E6525A"/>
<path d="M4.86295 7.04373C4.86295 8.07948 3.9312 8.91873 2.78195 8.91873C1.6327 8.91873 0.700195 8.07923 0.700195 7.04373C0.700195 6.00923 1.63245 5.16998 2.78195 5.16998C3.93145 5.16998 4.86295 6.00923 4.86295 7.04373ZM14.4854 8.43273C14.4854 9.81398 13.2402 10.9365 11.7069 10.9365C10.1712 10.9365 8.9272 9.81473 8.9272 8.43273C8.9272 7.05023 10.1712 5.92898 11.7072 5.92898C13.2402 5.92898 14.4854 7.04973 14.4854 8.43273ZM10.7837 2.79223C10.7837 3.71548 9.95219 4.46548 8.92694 4.46548C7.90094 4.46548 7.0702 3.71573 7.0702 2.79223C7.0702 1.86873 7.90094 1.12073 8.92694 1.12073C9.95194 1.12073 10.7837 1.86898 10.7837 2.79223Z" fill="white"/>
</svg>
