<svg width="15" height="15" viewBox="0 0 15 15" fill="none" xmlns="http://www.w3.org/2000/svg">
<path d="M14.3728 8.99594C14.6718 8.70183 14.8762 8.32528 14.9601 7.91439C15.044 7.5035 15.0035 7.07692 14.8438 6.68917C14.6841 6.30141 14.4124 5.97008 14.0634 5.73749C13.7144 5.50491 13.3041 5.38164 12.8847 5.38344C12.7947 5.38344 12.6909 5.38781 12.5744 5.39688C12.6603 5.32313 12.7378 5.2525 12.8034 5.18719C13.0984 4.89107 13.2993 4.51436 13.3807 4.1044C13.4622 3.69445 13.4207 3.26956 13.2613 2.88316C13.102 2.49675 12.832 2.16607 12.4852 1.9327C12.1385 1.69934 11.7305 1.57369 11.3125 1.57156H11.3047C11.0266 1.57174 10.7514 1.62707 10.4949 1.73435C10.2384 1.84163 10.0057 1.99874 9.81031 2.19656C9.74437 2.2625 9.67375 2.34 9.60031 2.42563C9.60937 2.30844 9.61406 2.20469 9.61406 2.11531C9.61406 1.5543 9.3912 1.01626 8.9945 0.619561C8.5978 0.222863 8.05977 0 7.49875 0C6.93773 0 6.3997 0.222863 6.003 0.619561C5.6063 1.01626 5.38344 1.5543 5.38344 2.11531C5.38344 2.205 5.38813 2.30875 5.39719 2.42563C5.32344 2.34 5.25281 2.2625 5.18719 2.19656C4.99181 1.99874 4.75913 1.84163 4.50261 1.73435C4.2461 1.62707 3.97086 1.57174 3.69281 1.57156H3.6875C3.27019 1.57489 2.86313 1.7012 2.51724 1.9347C2.17135 2.16819 1.90199 2.4985 1.74286 2.88429C1.58374 3.27008 1.54191 3.69424 1.6226 4.10368C1.7033 4.51313 1.90295 4.88969 2.19656 5.18625C2.26219 5.25156 2.33969 5.32219 2.42594 5.39625C2.30906 5.38719 2.20531 5.3825 2.11531 5.3825C1.5543 5.3825 1.01626 5.60536 0.619561 6.00206C0.222863 6.39876 0 6.9368 0 7.49781C0 8.05883 0.222863 8.59687 0.619561 8.99356C1.01626 9.39026 1.5543 9.61312 2.11531 9.61312C2.20469 9.61312 2.30844 9.60844 2.42563 9.59937C2.34 9.67281 2.2625 9.74344 2.19656 9.80937C1.90011 10.1045 1.69804 10.4811 1.61599 10.8913C1.53394 11.3015 1.57563 11.7268 1.73574 12.1133C1.89586 12.4998 2.1672 12.83 2.51531 13.0619C2.86342 13.2939 3.27261 13.4172 3.69094 13.4162H3.69875C3.97507 13.4167 4.24877 13.3627 4.50421 13.2573C4.75965 13.1519 4.99184 12.9973 5.1875 12.8022C5.25281 12.7366 5.32344 12.6591 5.39719 12.5731C5.38844 12.6897 5.38375 12.7934 5.38375 12.8834C5.38375 13.4445 5.60661 13.9825 6.00331 14.3792C6.40001 14.7759 6.93805 14.9987 7.49906 14.9987C8.06008 14.9987 8.59812 14.7759 8.99481 14.3792C9.39151 13.9825 9.61438 13.4445 9.61438 12.8834C9.61438 12.7937 9.60969 12.69 9.60063 12.5728C9.67438 12.6587 9.745 12.7366 9.81063 12.8022C10.0063 12.9976 10.2386 13.1525 10.4942 13.258C10.7499 13.3635 11.0238 13.4176 11.3003 13.4172H11.3081C11.7267 13.4189 12.1363 13.2961 12.4848 13.0644C12.8334 12.8326 13.1051 12.5025 13.2654 12.1158C13.4257 11.7292 13.4674 11.3036 13.3852 10.8932C13.3029 10.4828 13.1004 10.1062 12.8034 9.81125C12.7375 9.74531 12.66 9.67469 12.5744 9.60125C12.6916 9.61031 12.7953 9.615 12.8847 9.615C13.1613 9.61478 13.4351 9.55998 13.6904 9.45375C13.9458 9.34752 14.1777 9.19194 14.3728 8.99594ZM7.5 10.155C6.97464 10.155 6.46108 9.99921 6.02427 9.70734C5.58745 9.41547 5.24699 9.00062 5.04595 8.51525C4.8449 8.02989 4.7923 7.4958 4.89479 6.98054C4.99728 6.46528 5.25026 5.99198 5.62175 5.6205C5.99323 5.24901 6.46653 4.99603 6.98179 4.89354C7.49705 4.79105 8.03114 4.84365 8.5165 5.04469C9.00187 5.24574 9.41672 5.5862 9.70859 6.02302C10.0005 6.45983 10.1562 6.97339 10.1562 7.49875C10.1554 8.20298 9.8753 8.87812 9.37734 9.37609C8.87938 9.87405 8.20423 10.1542 7.5 10.155Z" fill="#CFDB89"/>
</svg>
