<svg width="20" height="22" viewBox="0 0 20 22" fill="none" xmlns="http://www.w3.org/2000/svg">
<path d="M10.0009 0C11.0618 0 12.0792 0.421427 12.8293 1.17157C13.5795 1.92172 14.0009 2.93913 14.0009 4L13.9989 4.055L14.0289 4.037C14.8716 3.54815 15.8646 3.38621 16.8189 3.582L17.0559 3.638C17.561 3.77458 18.0341 4.00966 18.4481 4.32972C18.862 4.64979 19.2086 5.04852 19.4679 5.503C19.9954 6.42097 20.1385 7.51032 19.8659 8.53338C19.5933 9.55644 18.9272 10.4302 18.0129 10.964L17.9449 11L18.0159 11.039C18.8973 11.5544 19.5489 12.3865 19.8379 13.3658C20.1268 14.3451 20.0313 15.3977 19.5709 16.309L19.4699 16.495C19.2105 16.9501 18.8635 17.3494 18.4491 17.6698C18.0346 17.9902 17.5608 18.2254 17.0551 18.3619C16.5493 18.4983 16.0215 18.5334 15.5021 18.4649C14.9827 18.3964 14.482 18.2259 14.0289 17.963L13.9989 17.943L14.0009 18C14.0009 19.0262 13.6065 20.0132 12.8992 20.7568C12.1919 21.5004 11.2259 21.9437 10.2009 21.995L10.0009 22C8.94003 22 7.92262 21.5786 7.17247 20.8284C6.42232 20.0783 6.0009 19.0609 6.0009 18L6.0019 17.944L5.9729 17.963C5.13035 18.4522 4.13735 18.6145 3.1829 18.419L2.9469 18.363C2.44161 18.2265 1.96829 17.9915 1.55417 17.6714C1.14005 17.3514 0.793312 16.9526 0.533898 16.498C0.0065189 15.5804 -0.136691 14.4914 0.135492 13.4686C0.407675 12.4458 1.07318 11.5721 1.9869 11.038L2.0569 11L1.9859 10.962C1.1045 10.4466 0.452888 9.61446 0.163938 8.63519C-0.125012 7.65591 -0.0295354 6.6033 0.430898 5.692L0.530898 5.505C0.790331 5.04949 1.13741 4.64986 1.5521 4.32919C1.96679 4.00852 2.44088 3.77315 2.94702 3.63667C3.45315 3.50018 3.98131 3.46529 4.501 3.534C5.02069 3.60272 5.52162 3.77367 5.9749 4.037L6.0009 4.055V4C6.0009 2.97376 6.39533 1.98677 7.10262 1.24319C7.80991 0.499605 8.77594 0.0563121 9.8009 0.005L10.0009 0ZM10.0009 8C9.20525 8 8.44219 8.31607 7.87958 8.87868C7.31697 9.44129 7.0009 10.2044 7.0009 11C7.0009 11.7956 7.31697 12.5587 7.87958 13.1213C8.44219 13.6839 9.20525 14 10.0009 14C10.7965 14 11.5596 13.6839 12.1222 13.1213C12.6848 12.5587 13.0009 11.7956 13.0009 11C13.0009 10.2044 12.6848 9.44129 12.1222 8.87868C11.5596 8.31607 10.7965 8 10.0009 8Z" fill="#F7A398"/>
</svg>
